<?xml version="1.0" encoding="UTF-8"?>
<svg xmlns="http://www.w3.org/2000/svg" width="1162" height="356" viewBox="0 0 1162 356" role="img" aria-labelledby="title desc">
<title id="title">Aissa Events logo</title>
<desc id="desc">Logo Aissa Events, slogan THE PERFECT TIMING, fond transparent.</desc>
<g fill-rule="evenodd" shape-rendering="geometricPrecision">
  <path fill="#887666" d="M 369.0 100.0 L 364.0 99.0 L 361.0 100.0 L 357.0 104.0 L 356.0 111.0 L 359.0 115.0 L 365.0 115.0 L 369.0 113.0 L 372.0 106.0 Z M 1124.0 173.0 L 1123.0 173.0 L 1121.0 177.0 L 1110.0 191.0 L 1097.0 204.0 L 1081.0 215.0 L 1079.0 214.0 L 1087.0 205.0 L 1091.0 195.0 L 1091.0 184.0 L 1084.0 162.0 L 1084.0 152.0 L 1086.0 146.0 L 1096.0 134.0 L 1095.0 133.0 L 1087.0 137.0 L 1081.0 143.0 L 1077.0 152.0 L 1077.0 165.0 L 1078.0 166.0 L 1078.0 171.0 L 1080.0 178.0 L 1080.0 195.0 L 1075.0 207.0 L 1067.0 216.0 L 1059.0 219.0 L 1058.0 218.0 L 1054.0 218.0 L 1047.0 212.0 L 1045.0 208.0 L 1045.0 201.0 L 1048.0 195.0 L 1054.0 191.0 L 1058.0 191.0 L 1059.0 190.0 L 1057.0 187.0 L 1054.0 187.0 L 1053.0 185.0 L 1061.0 173.0 L 1044.0 195.0 L 1024.0 214.0 L 1016.0 218.0 L 1009.0 218.0 L 1005.0 214.0 L 1005.0 204.0 L 1008.0 195.0 L 1023.0 166.0 L 1025.0 164.0 L 1032.0 150.0 L 1034.0 148.0 L 1049.0 121.0 L 1051.0 119.0 L 1067.0 119.0 L 1068.0 118.0 L 1072.0 118.0 L 1078.0 116.0 L 1082.0 113.0 L 1082.0 112.0 L 1080.0 114.0 L 1070.0 118.0 L 1053.0 118.0 L 1052.0 117.0 L 1064.0 94.0 L 1066.0 88.0 L 1066.0 80.0 L 1065.0 78.0 L 1064.0 78.0 L 1050.0 101.0 L 1046.0 110.0 L 1041.0 117.0 L 1026.0 117.0 L 1025.0 118.0 L 1022.0 118.0 L 1014.0 123.0 L 1014.0 124.0 L 1016.0 122.0 L 1026.0 118.0 L 1039.0 118.0 L 1040.0 119.0 L 1027.0 143.0 L 1022.0 150.0 L 1018.0 159.0 L 1013.0 166.0 L 1009.0 175.0 L 1002.0 185.0 L 980.0 210.0 L 968.0 218.0 L 965.0 218.0 L 964.0 219.0 L 961.0 218.0 L 958.0 215.0 L 958.0 208.0 L 963.0 197.0 L 980.0 172.0 L 986.0 161.0 L 988.0 155.0 L 988.0 147.0 L 987.0 145.0 L 982.0 141.0 L 974.0 141.0 L 971.0 142.0 L 958.0 151.0 L 942.0 168.0 L 934.0 178.0 L 935.0 179.0 L 933.0 180.0 L 929.0 185.0 L 928.0 183.0 L 933.0 176.0 L 936.0 169.0 L 940.0 164.0 L 951.0 143.0 L 942.0 142.0 L 936.0 151.0 L 925.0 173.0 L 912.0 189.0 L 898.0 203.0 L 888.0 211.0 L 879.0 216.0 L 869.0 219.0 L 864.0 219.0 L 859.0 217.0 L 854.0 211.0 L 853.0 208.0 L 853.0 197.0 L 856.0 187.0 L 859.0 182.0 L 863.0 182.0 L 864.0 181.0 L 878.0 178.0 L 888.0 173.0 L 890.0 173.0 L 900.0 167.0 L 908.0 159.0 L 911.0 153.0 L 911.0 146.0 L 910.0 144.0 L 906.0 141.0 L 894.0 141.0 L 885.0 144.0 L 875.0 149.0 L 868.0 154.0 L 857.0 165.0 L 853.0 172.0 L 850.0 175.0 L 846.0 177.0 L 840.0 178.0 L 835.0 176.0 L 829.0 169.0 L 837.0 154.0 L 840.0 145.0 L 840.0 140.0 L 837.0 136.0 L 832.0 138.0 L 829.0 142.0 L 826.0 151.0 L 826.0 157.0 L 825.0 158.0 L 826.0 160.0 L 826.0 168.0 L 820.0 179.0 L 808.0 196.0 L 791.0 213.0 L 787.0 216.0 L 780.0 219.0 L 776.0 219.0 L 772.0 216.0 L 772.0 207.0 L 783.0 186.0 L 797.0 164.0 L 797.0 162.0 L 801.0 154.0 L 801.0 144.0 L 798.0 141.0 L 792.0 141.0 L 785.0 144.0 L 769.0 159.0 L 757.0 174.0 L 755.0 178.0 L 768.0 161.0 L 783.0 146.0 L 788.0 143.0 L 792.0 142.0 L 795.0 145.0 L 795.0 148.0 L 784.0 168.0 L 773.0 184.0 L 766.0 200.0 L 765.0 212.0 L 766.0 215.0 L 770.0 219.0 L 780.0 220.0 L 795.0 211.0 L 805.0 202.0 L 822.0 181.0 L 828.0 171.0 L 835.0 177.0 L 838.0 177.0 L 839.0 178.0 L 848.0 177.0 L 849.0 178.0 L 846.0 184.0 L 843.0 194.0 L 843.0 206.0 L 848.0 215.0 L 855.0 219.0 L 858.0 219.0 L 859.0 220.0 L 872.0 219.0 L 886.0 213.0 L 899.0 203.0 L 916.0 185.0 L 917.0 186.0 L 916.0 189.0 L 911.0 196.0 L 906.0 207.0 L 899.0 218.0 L 900.0 219.0 L 907.0 219.0 L 908.0 220.0 L 928.0 187.0 L 950.0 160.0 L 963.0 148.0 L 972.0 143.0 L 977.0 142.0 L 979.0 143.0 L 981.0 146.0 L 980.0 152.0 L 971.0 168.0 L 960.0 183.0 L 952.0 198.0 L 952.0 201.0 L 951.0 202.0 L 951.0 213.0 L 956.0 219.0 L 965.0 220.0 L 974.0 216.0 L 989.0 202.0 L 1002.0 186.0 L 1003.0 188.0 L 998.0 201.0 L 998.0 212.0 L 1000.0 216.0 L 1004.0 219.0 L 1013.0 220.0 L 1023.0 216.0 L 1031.0 210.0 L 1038.0 202.0 L 1045.0 196.0 L 1046.0 197.0 L 1044.0 202.0 L 1044.0 209.0 L 1046.0 214.0 L 1049.0 217.0 L 1055.0 220.0 L 1069.0 220.0 L 1083.0 215.0 L 1097.0 205.0 L 1110.0 192.0 Z M 1078.0 215.0 L 1079.0 214.0 L 1080.0 215.0 L 1079.0 216.0 Z M 907.0 144.0 L 908.0 149.0 L 906.0 154.0 L 892.0 169.0 L 876.0 178.0 L 862.0 182.0 L 859.0 181.0 L 868.0 166.0 L 885.0 149.0 L 894.0 143.0 L 901.0 141.0 L 905.0 142.0 Z M 769.0 42.0 L 761.0 38.0 L 757.0 38.0 L 756.0 37.0 L 738.0 37.0 L 737.0 38.0 L 733.0 38.0 L 718.0 43.0 L 716.0 45.0 L 711.0 47.0 L 698.0 59.0 L 691.0 72.0 L 690.0 80.0 L 689.0 81.0 L 689.0 89.0 L 690.0 90.0 L 691.0 97.0 L 694.0 103.0 L 702.0 112.0 L 706.0 114.0 L 707.0 116.0 L 706.0 117.0 L 693.0 118.0 L 692.0 119.0 L 678.0 122.0 L 665.0 128.0 L 656.0 134.0 L 642.0 149.0 L 638.0 156.0 L 634.0 167.0 L 634.0 171.0 L 633.0 172.0 L 633.0 187.0 L 634.0 188.0 L 634.0 191.0 L 640.0 204.0 L 649.0 213.0 L 662.0 220.0 L 672.0 222.0 L 673.0 223.0 L 698.0 223.0 L 712.0 219.0 L 721.0 215.0 L 730.0 209.0 L 743.0 195.0 L 749.0 185.0 L 752.0 176.0 L 752.0 173.0 L 753.0 172.0 L 753.0 161.0 L 751.0 154.0 L 745.0 147.0 L 739.0 144.0 L 730.0 144.0 L 725.0 147.0 L 724.0 149.0 L 727.0 148.0 L 735.0 149.0 L 739.0 151.0 L 745.0 157.0 L 748.0 164.0 L 748.0 176.0 L 745.0 186.0 L 740.0 195.0 L 729.0 207.0 L 719.0 214.0 L 706.0 220.0 L 698.0 221.0 L 697.0 222.0 L 679.0 222.0 L 669.0 219.0 L 661.0 214.0 L 653.0 206.0 L 649.0 199.0 L 646.0 189.0 L 646.0 174.0 L 647.0 173.0 L 647.0 169.0 L 649.0 162.0 L 655.0 149.0 L 660.0 142.0 L 674.0 129.0 L 688.0 121.0 L 698.0 118.0 L 710.0 117.0 L 719.0 121.0 L 722.0 121.0 L 723.0 120.0 L 722.0 118.0 L 719.0 117.0 L 713.0 117.0 L 707.0 112.0 L 703.0 104.0 L 701.0 97.0 L 701.0 93.0 L 700.0 92.0 L 701.0 77.0 L 703.0 70.0 L 710.0 58.0 L 724.0 45.0 L 741.0 38.0 L 756.0 38.0 L 765.0 41.0 L 769.0 44.0 L 775.0 53.0 L 775.0 58.0 L 776.0 59.0 L 775.0 67.0 L 771.0 76.0 L 768.0 80.0 L 759.0 88.0 L 747.0 93.0 L 736.0 93.0 L 735.0 95.0 L 739.0 97.0 L 750.0 96.0 L 757.0 93.0 L 764.0 88.0 L 770.0 82.0 L 775.0 74.0 L 777.0 68.0 L 778.0 58.0 L 777.0 57.0 L 777.0 53.0 L 774.0 47.0 Z M 589.0 173.0 L 574.0 193.0 L 564.0 204.0 L 554.0 213.0 L 545.0 218.0 L 538.0 218.0 L 535.0 214.0 L 535.0 206.0 L 537.0 200.0 L 552.0 171.0 L 570.0 143.0 L 560.0 142.0 L 552.0 154.0 L 551.0 153.0 L 552.0 150.0 L 551.0 144.0 L 548.0 141.0 L 537.0 141.0 L 536.0 142.0 L 529.0 143.0 L 519.0 148.0 L 507.0 157.0 L 497.0 168.0 L 492.0 176.0 L 483.0 187.0 L 466.0 204.0 L 454.0 213.0 L 449.0 215.0 L 448.0 214.0 L 451.0 212.0 L 456.0 206.0 L 461.0 194.0 L 460.0 180.0 L 454.0 163.0 L 454.0 151.0 L 455.0 150.0 L 455.0 147.0 L 457.0 143.0 L 463.0 137.0 L 468.0 136.0 L 474.0 141.0 L 475.0 144.0 L 475.0 148.0 L 468.0 158.0 L 471.0 159.0 L 474.0 156.0 L 476.0 151.0 L 476.0 145.0 L 474.0 140.0 L 469.0 136.0 L 461.0 136.0 L 455.0 139.0 L 450.0 144.0 L 447.0 151.0 L 446.0 159.0 L 447.0 160.0 L 448.0 175.0 L 450.0 181.0 L 450.0 192.0 L 449.0 193.0 L 449.0 197.0 L 447.0 203.0 L 442.0 211.0 L 437.0 216.0 L 430.0 219.0 L 427.0 219.0 L 422.0 217.0 L 416.0 211.0 L 415.0 208.0 L 415.0 201.0 L 418.0 195.0 L 424.0 191.0 L 428.0 191.0 L 429.0 190.0 L 427.0 187.0 L 424.0 187.0 L 423.0 185.0 L 430.0 176.0 L 431.0 173.0 L 422.0 185.0 L 406.0 202.0 L 388.0 215.0 L 387.0 213.0 L 393.0 207.0 L 396.0 202.0 L 398.0 196.0 L 398.0 191.0 L 399.0 190.0 L 398.0 181.0 L 391.0 160.0 L 391.0 154.0 L 392.0 153.0 L 393.0 146.0 L 396.0 141.0 L 403.0 135.0 L 405.0 135.0 L 410.0 139.0 L 412.0 143.0 L 411.0 150.0 L 405.0 157.0 L 407.0 159.0 L 412.0 152.0 L 412.0 142.0 L 411.0 140.0 L 407.0 136.0 L 403.0 134.0 L 400.0 134.0 L 393.0 138.0 L 388.0 143.0 L 385.0 149.0 L 385.0 152.0 L 384.0 153.0 L 384.0 165.0 L 385.0 166.0 L 388.0 189.0 L 387.0 190.0 L 386.0 199.0 L 380.0 210.0 L 371.0 218.0 L 362.0 218.0 L 358.0 216.0 L 353.0 209.0 L 353.0 199.0 L 354.0 197.0 L 358.0 193.0 L 367.0 190.0 L 365.0 187.0 L 361.0 187.0 L 360.0 186.0 L 369.0 173.0 L 368.0 173.0 L 356.0 190.0 L 335.0 212.0 L 325.0 218.0 L 319.0 219.0 L 317.0 218.0 L 314.0 214.0 L 314.0 206.0 L 317.0 197.0 L 330.0 172.0 L 336.0 164.0 L 348.0 144.0 L 348.0 143.0 L 340.0 142.0 L 339.0 141.0 L 318.0 176.0 L 301.0 197.0 L 286.0 212.0 L 274.0 220.0 L 268.0 222.0 L 257.0 222.0 L 253.0 220.0 L 249.0 215.0 L 247.0 202.0 L 248.0 201.0 L 249.0 190.0 L 255.0 173.0 L 255.0 170.0 L 263.0 154.0 L 263.0 152.0 L 266.0 149.0 L 268.0 150.0 L 273.0 150.0 L 274.0 151.0 L 284.0 151.0 L 295.0 147.0 L 301.0 142.0 L 300.0 140.0 L 291.0 147.0 L 282.0 150.0 L 273.0 150.0 L 272.0 149.0 L 268.0 149.0 L 266.0 147.0 L 272.0 134.0 L 274.0 132.0 L 278.0 123.0 L 290.0 104.0 L 292.0 99.0 L 310.0 71.0 L 311.0 68.0 L 317.0 60.0 L 318.0 57.0 L 328.0 43.0 L 330.0 37.0 L 325.0 37.0 L 305.0 46.0 L 278.0 66.0 L 252.0 91.0 L 216.0 131.0 L 202.0 127.0 L 196.0 127.0 L 195.0 126.0 L 189.0 126.0 L 188.0 125.0 L 156.0 125.0 L 155.0 126.0 L 143.0 127.0 L 126.0 132.0 L 113.0 138.0 L 103.0 145.0 L 97.0 151.0 L 90.0 163.0 L 89.0 174.0 L 91.0 179.0 L 93.0 181.0 L 94.0 181.0 L 93.0 168.0 L 94.0 167.0 L 95.0 159.0 L 97.0 155.0 L 110.0 141.0 L 125.0 133.0 L 138.0 129.0 L 146.0 128.0 L 147.0 127.0 L 156.0 127.0 L 157.0 126.0 L 183.0 126.0 L 184.0 127.0 L 192.0 127.0 L 193.0 128.0 L 198.0 128.0 L 203.0 130.0 L 212.0 131.0 L 215.0 133.0 L 189.0 163.0 L 163.0 190.0 L 138.0 212.0 L 120.0 224.0 L 107.0 230.0 L 97.0 233.0 L 91.0 233.0 L 90.0 234.0 L 72.0 233.0 L 63.0 230.0 L 53.0 224.0 L 44.0 214.0 L 39.0 203.0 L 39.0 189.0 L 40.0 188.0 L 40.0 185.0 L 45.0 176.0 L 59.0 163.0 L 58.0 162.0 L 49.0 167.0 L 42.0 176.0 L 38.0 187.0 L 37.0 199.0 L 38.0 200.0 L 39.0 211.0 L 45.0 222.0 L 54.0 230.0 L 62.0 234.0 L 69.0 236.0 L 74.0 236.0 L 75.0 237.0 L 87.0 237.0 L 88.0 236.0 L 93.0 236.0 L 107.0 232.0 L 120.0 226.0 L 137.0 215.0 L 159.0 197.0 L 185.0 171.0 L 218.0 133.0 L 254.0 146.0 L 246.0 163.0 L 241.0 177.0 L 240.0 185.0 L 239.0 186.0 L 238.0 200.0 L 239.0 201.0 L 239.0 206.0 L 243.0 215.0 L 248.0 220.0 L 255.0 223.0 L 267.0 223.0 L 276.0 220.0 L 286.0 213.0 L 304.0 195.0 L 311.0 186.0 L 312.0 188.0 L 307.0 202.0 L 307.0 211.0 L 310.0 217.0 L 316.0 220.0 L 321.0 220.0 L 331.0 216.0 L 342.0 207.0 L 352.0 195.0 L 353.0 196.0 L 353.0 199.0 L 352.0 200.0 L 352.0 210.0 L 354.0 214.0 L 358.0 218.0 L 362.0 220.0 L 376.0 220.0 L 386.0 217.0 L 399.0 209.0 L 414.0 195.0 L 416.0 196.0 L 414.0 201.0 L 414.0 208.0 L 417.0 215.0 L 422.0 219.0 L 425.0 220.0 L 439.0 220.0 L 446.0 218.0 L 459.0 211.0 L 464.0 207.0 L 487.0 183.0 L 488.0 185.0 L 484.0 194.0 L 484.0 209.0 L 485.0 212.0 L 490.0 218.0 L 496.0 220.0 L 500.0 220.0 L 507.0 217.0 L 516.0 209.0 L 531.0 190.0 L 532.0 192.0 L 528.0 203.0 L 528.0 211.0 L 531.0 217.0 L 534.0 219.0 L 542.0 220.0 L 550.0 217.0 L 558.0 211.0 L 573.0 195.0 L 587.0 177.0 Z M 548.0 143.0 L 551.0 147.0 L 550.0 156.0 L 537.0 180.0 L 526.0 196.0 L 512.0 212.0 L 503.0 218.0 L 498.0 218.0 L 493.0 212.0 L 493.0 201.0 L 498.0 186.0 L 506.0 172.0 L 514.0 162.0 L 528.0 149.0 L 541.0 142.0 L 546.0 142.0 Z M 325.0 40.0 L 313.0 53.0 L 297.0 74.0 L 276.0 106.0 L 271.0 116.0 L 263.0 128.0 L 257.0 141.0 L 254.0 144.0 L 249.0 143.0 L 241.0 139.0 L 220.0 132.0 L 233.0 115.0 L 253.0 93.0 L 281.0 65.0 L 296.0 53.0 L 308.0 45.0 L 323.0 38.0 Z"/>
  <path fill="#2C1F33" d="M 884.0 279.0 L 884.0 317.0 L 885.0 317.0 L 885.0 284.0 L 886.0 283.0 L 893.0 291.0 L 910.0 316.0 L 913.0 317.0 L 913.0 279.0 L 912.0 279.0 L 912.0 311.0 L 911.0 312.0 L 908.0 310.0 L 887.0 279.0 Z M 860.0 279.0 L 859.0 279.0 L 859.0 316.0 L 858.0 317.0 L 860.0 317.0 Z M 797.0 279.0 L 797.0 317.0 L 799.0 317.0 L 799.0 284.0 L 800.0 283.0 L 804.0 289.0 L 806.0 296.0 L 816.0 317.0 L 818.0 316.0 L 823.0 305.0 L 823.0 303.0 L 827.0 296.0 L 827.0 294.0 L 831.0 287.0 L 831.0 285.0 L 833.0 283.0 L 834.0 284.0 L 834.0 317.0 L 836.0 317.0 L 836.0 279.0 L 832.0 279.0 L 832.0 281.0 L 827.0 290.0 L 827.0 292.0 L 817.0 313.0 L 816.0 313.0 L 814.0 310.0 L 814.0 308.0 L 810.0 301.0 L 808.0 294.0 L 801.0 279.0 Z M 773.0 279.0 L 773.0 317.0 L 775.0 317.0 L 775.0 300.0 L 774.0 299.0 L 774.0 295.0 L 775.0 294.0 L 775.0 279.0 Z M 726.0 279.0 L 726.0 280.0 L 737.0 280.0 L 739.0 282.0 L 739.0 295.0 L 738.0 296.0 L 738.0 301.0 L 739.0 302.0 L 739.0 312.0 L 738.0 314.0 L 739.0 316.0 L 738.0 317.0 L 740.0 317.0 L 740.0 282.0 L 742.0 280.0 L 753.0 280.0 L 753.0 279.0 Z M 659.0 279.0 L 659.0 280.0 L 670.0 280.0 L 671.0 281.0 L 671.0 317.0 L 673.0 317.0 L 673.0 281.0 L 674.0 280.0 L 686.0 280.0 L 686.0 279.0 Z M 568.0 279.0 L 568.0 317.0 L 592.0 317.0 L 591.0 316.0 L 571.0 316.0 L 570.0 315.0 L 570.0 299.0 L 571.0 298.0 L 590.0 298.0 L 589.0 297.0 L 571.0 297.0 L 570.0 296.0 L 570.0 281.0 L 571.0 280.0 L 591.0 280.0 L 591.0 279.0 Z M 548.0 279.0 L 526.0 279.0 L 526.0 317.0 L 528.0 317.0 L 528.0 299.0 L 529.0 298.0 L 546.0 298.0 L 546.0 297.0 L 530.0 297.0 L 529.0 298.0 L 528.0 297.0 L 528.0 281.0 L 529.0 280.0 L 548.0 280.0 Z M 480.0 279.0 L 480.0 317.0 L 482.0 317.0 L 481.0 316.0 L 481.0 303.0 L 483.0 301.0 L 492.0 301.0 L 497.0 307.0 L 501.0 315.0 L 503.0 317.0 L 505.0 317.0 L 496.0 303.0 L 497.0 300.0 L 501.0 299.0 L 504.0 296.0 L 505.0 287.0 L 503.0 283.0 L 497.0 279.0 Z M 481.0 282.0 L 483.0 280.0 L 495.0 280.0 L 498.0 281.0 L 503.0 287.0 L 503.0 293.0 L 502.0 295.0 L 497.0 299.0 L 494.0 299.0 L 493.0 300.0 L 483.0 300.0 L 481.0 298.0 Z M 436.0 279.0 L 436.0 317.0 L 459.0 317.0 L 459.0 316.0 L 439.0 316.0 L 438.0 315.0 L 438.0 299.0 L 439.0 298.0 L 457.0 298.0 L 457.0 297.0 L 439.0 297.0 L 438.0 296.0 L 438.0 281.0 L 439.0 280.0 L 459.0 280.0 L 458.0 279.0 Z M 412.0 280.0 L 409.0 279.0 L 393.0 279.0 L 393.0 316.0 L 392.0 317.0 L 394.0 317.0 L 394.0 302.0 L 395.0 301.0 L 408.0 301.0 L 413.0 299.0 L 417.0 294.0 L 417.0 286.0 Z M 394.0 282.0 L 396.0 280.0 L 408.0 280.0 L 412.0 282.0 L 415.0 286.0 L 415.0 294.0 L 410.0 299.0 L 407.0 300.0 L 396.0 300.0 L 394.0 298.0 Z M 325.0 279.0 L 325.0 317.0 L 348.0 317.0 L 348.0 316.0 L 328.0 316.0 L 327.0 315.0 L 327.0 299.0 L 328.0 298.0 L 346.0 298.0 L 346.0 297.0 L 328.0 297.0 L 327.0 296.0 L 327.0 281.0 L 328.0 280.0 L 348.0 280.0 L 348.0 279.0 Z M 275.0 279.0 L 275.0 317.0 L 276.0 317.0 L 276.0 300.0 L 278.0 298.0 L 300.0 298.0 L 301.0 299.0 L 301.0 317.0 L 303.0 317.0 L 303.0 279.0 L 301.0 279.0 L 301.0 296.0 L 300.0 297.0 L 277.0 297.0 L 276.0 296.0 L 276.0 279.0 Z M 228.0 279.0 L 228.0 280.0 L 240.0 280.0 L 241.0 281.0 L 241.0 317.0 L 243.0 317.0 L 243.0 281.0 L 244.0 280.0 L 255.0 280.0 L 255.0 279.0 Z M 952.0 278.0 L 951.0 279.0 L 944.0 280.0 L 937.0 286.0 L 934.0 293.0 L 934.0 304.0 L 936.0 309.0 L 942.0 315.0 L 950.0 318.0 L 956.0 318.0 L 957.0 317.0 L 961.0 317.0 L 967.0 313.0 L 967.0 299.0 L 952.0 299.0 L 952.0 300.0 L 964.0 300.0 L 965.0 301.0 L 965.0 312.0 L 963.0 314.0 L 955.0 317.0 L 947.0 316.0 L 942.0 313.0 L 936.0 304.0 L 936.0 293.0 L 937.0 290.0 L 944.0 282.0 L 948.0 280.0 L 954.0 279.0 L 955.0 280.0 L 958.0 280.0 L 964.0 284.0 L 966.0 283.0 L 960.0 279.0 Z M 627.0 278.0 L 620.0 280.0 L 613.0 286.0 L 610.0 293.0 L 610.0 304.0 L 612.0 309.0 L 618.0 315.0 L 626.0 318.0 L 632.0 318.0 L 638.0 316.0 L 642.0 313.0 L 640.0 312.0 L 638.0 314.0 L 630.0 317.0 L 623.0 316.0 L 614.0 308.0 L 611.0 299.0 L 612.0 292.0 L 614.0 288.0 L 621.0 281.0 L 630.0 279.0 L 631.0 280.0 L 634.0 280.0 L 641.0 284.0 L 639.0 281.0 L 635.0 279.0 Z"/>
  <path fill="#B8924E" d="M 1108.0 298.0 L 1106.0 295.0 L 1102.0 294.0 L 1098.0 298.0 L 1002.0 298.0 L 1002.0 300.0 L 1097.0 300.0 L 1098.0 299.0 L 1100.0 301.0 L 1100.0 302.0 L 1102.0 303.0 L 1105.0 303.0 L 1107.0 301.0 Z M 82.0 297.0 L 85.0 300.0 L 87.0 300.0 L 89.0 299.0 L 91.0 296.0 L 197.0 296.0 L 198.0 295.0 L 197.0 294.0 L 91.0 294.0 L 89.0 292.0 L 85.0 291.0 L 83.0 292.0 L 82.0 294.0 Z M 454.0 210.0 L 453.0 211.0 L 454.0 212.0 L 455.0 211.0 Z M 453.0 211.0 L 454.0 210.0 L 455.0 211.0 L 454.0 212.0 Z M 1085.0 209.0 L 1079.0 215.0 L 1081.0 214.0 L 1082.0 212.0 L 1083.0 213.0 L 1084.0 212.0 L 1083.0 211.0 Z M 1082.0 212.0 L 1083.0 211.0 L 1084.0 212.0 L 1083.0 213.0 Z M 393.0 208.0 L 388.0 213.0 L 388.0 214.0 L 391.0 212.0 L 390.0 211.0 Z M 389.0 212.0 L 390.0 211.0 L 391.0 212.0 L 390.0 213.0 Z M 916.0 186.0 L 913.0 189.0 L 914.0 190.0 Z M 913.0 189.0 L 914.0 188.0 L 915.0 189.0 L 914.0 190.0 Z M 487.0 184.0 L 484.0 187.0 L 485.0 188.0 L 484.0 193.0 L 484.0 191.0 L 485.0 190.0 L 485.0 188.0 Z M 484.0 187.0 L 485.0 186.0 L 486.0 187.0 L 485.0 188.0 Z M 941.0 169.0 L 935.0 176.0 L 934.0 175.0 L 935.0 176.0 L 932.0 178.0 L 933.0 179.0 L 931.0 180.0 L 929.0 184.0 L 931.0 182.0 L 932.0 183.0 L 934.0 181.0 L 932.0 183.0 L 931.0 182.0 L 931.0 181.0 L 933.0 179.0 L 932.0 178.0 L 934.0 177.0 Z M 401.0 133.0 L 403.0 133.0 L 406.0 135.0 L 402.0 137.0 L 403.0 136.0 L 405.0 136.0 L 409.0 139.0 L 410.0 138.0 L 412.0 140.0 L 412.0 141.0 L 412.0 140.0 L 407.0 135.0 L 403.0 133.0 Z M 408.0 138.0 L 409.0 137.0 L 410.0 138.0 L 409.0 139.0 Z M 407.0 137.0 L 408.0 136.0 L 409.0 137.0 L 408.0 138.0 Z M 405.0 136.0 L 406.0 135.0 L 408.0 136.0 L 407.0 137.0 Z M 322.0 38.0 L 321.0 38.0 L 323.0 39.0 L 321.0 40.0 L 323.0 41.0 L 318.0 46.0 L 324.0 40.0 Z M 322.0 40.0 L 323.0 39.0 L 324.0 40.0 L 323.0 41.0 Z"/>
</g>
</svg>